<?xml version="1.0" standalone="no"?>
<!DOCTYPE svg PUBLIC "-//W3C//DTD SVG 20010904//EN"
 "http://www.w3.org/TR/2001/REC-SVG-20010904/DTD/svg10.dtd">
<svg version="1.0" xmlns="http://www.w3.org/2000/svg"
 width="198.000000pt" height="198.000000pt" viewBox="0 0 198.000000 198.000000"
 preserveAspectRatio="xMidYMid meet">
<metadata>
Created by potrace 1.14, written by Peter Selinger 2001-2017
</metadata>
<g transform="translate(0.000000,198.000000) scale(0.100000,-0.100000)"
fill="#000000" stroke="none">
<path d="M0 985 l0 -565 199 0 198 0 0 63 0 62 -113 0 -114 -1 -1 76 c-1 41
-1 267 -2 503 l0 427 -84 0 -83 0 0 -565z"/>
<path d="M435 1528 c4 -19 19 -123 30 -213 2 -16 11 -77 19 -135 9 -58 18
-125 21 -150 6 -46 8 -60 20 -140 12 -79 14 -94 19 -135 3 -22 13 -92 22 -155
16 -110 20 -140 23 -168 2 -20 173 -12 177 8 1 8 5 29 8 45 5 30 12 73 22 130
3 17 11 66 20 110 8 44 17 98 19 120 3 22 7 47 10 55 2 8 7 35 10 60 3 25 8
56 10 70 2 14 7 54 10 90 9 87 21 95 29 18 12 -108 35 -269 52 -363 3 -16 18
-102 33 -190 l27 -160 87 -3 c78 -2 87 -1 88 15 0 10 2 27 4 38 2 11 7 40 10
65 3 25 10 74 15 110 5 36 12 88 15 115 4 28 8 61 10 75 2 14 11 79 20 145 9
66 18 131 20 145 2 14 6 43 9 65 4 22 9 60 12 85 2 25 9 77 15 115 5 39 12 89
15 113 l5 42 -79 0 -80 0 -7 -67 c-3 -38 -8 -88 -11 -113 -2 -25 -6 -63 -9
-85 -5 -46 -15 -144 -30 -305 -3 -36 -8 -83 -10 -105 -2 -22 -5 -70 -6 -107
-1 -38 -6 -68 -11 -68 -4 0 -8 10 -9 23 0 12 -2 31 -4 42 -2 11 -6 52 -9 92
-3 40 -10 92 -16 116 -5 24 -12 59 -14 78 -3 19 -10 63 -16 99 -6 36 -13 79
-16 95 -17 103 -45 263 -49 283 -5 20 -11 22 -70 22 -68 0 -66 2 -79 -65 -10
-48 -13 -65 -30 -165 -23 -135 -24 -143 -47 -264 -23 -126 -27 -147 -35 -236
-7 -66 -10 -98 -13 -113 0 -5 -5 -6 -10 -3 -4 3 -9 45 -10 93 -1 48 -4 89 -5
92 -2 3 -7 41 -11 84 -3 43 -8 88 -10 100 -2 12 -6 49 -9 82 -4 33 -8 78 -11
100 -6 53 -13 117 -20 190 -11 112 -5 105 -95 105 -76 0 -79 -1 -75 -22z"/>
<path d="M1463 986 l0 -566 165 0 c155 0 167 1 214 25 59 29 79 51 113 123
l26 53 -3 372 -3 372 -27 46 c-40 68 -87 105 -163 127 -11 3 -88 7 -171 9
l-151 4 0 -565z m297 417 c26 -15 45 -48 56 -94 9 -39 10 -579 2 -638 -16
-102 -55 -141 -143 -141 l-45 0 0 449 0 450 52 -5 c29 -3 64 -12 78 -21z"/>
</g>
</svg>
